<svg width="20" height="20" viewBox="0 0 20 20" fill="none" xmlns="http://www.w3.org/2000/svg">
    <rect x="1" y="1" width="18" height="18" rx="6" fill="#475569"/>
    <rect x="1" y="1" width="18" height="18" rx="6" stroke="#475569" stroke-width="2"/>
    <path d="M6 11L9 13L14.5 7" stroke="white" stroke-width="2.01011"/>
    <path d="M42 2.82812V16.8281H40.5625V2.82812H42ZM39.1094 3.125V16.125H37.7031V9.32812H34.8281V8.09375H37.7031V3.125H39.1094ZM35.7812 4.5V5.71875H31.9219V12.2969C33.7578 12.2812 34.9922 12.2031 36.4375 11.8906L36.5625 13.1406C34.9531 13.4688 33.5781 13.5312 31.3906 13.5312H30.4688V4.5H35.7812ZM56.6094 13.7969V15.0156H43.7969V13.7969H56.6094ZM46.75 3.79688V6.3125H53.625V3.79688H55.0938V11.1406H45.2656V3.79688H46.75ZM46.75 9.96875H53.625V7.48438H46.75V9.96875ZM68.9219 4.125V5.4375C68.9062 7.14062 68.9219 9.07812 68.3281 11.9844L66.875 11.8281C67.1328 10.6328 67.2812 9.57812 67.3594 8.625L58.9375 9.125L58.7188 7.84375L67.4375 7.5C67.4688 6.75 67.4688 6.07031 67.4688 5.4375V5.34375H59.1406V4.125H68.9219ZM70.3906 13.7812V15.0156H57.625V13.7812H62.4844V10.2344H63.9531V13.7812H70.3906ZM78.5625 4.8125C78.5625 7.09375 81 9.25 83.6875 9.73438L83 10.9688C80.7656 10.4844 78.7031 9.01562 77.7969 7.04688C76.875 9 74.8203 10.4688 72.5781 10.9688L71.9219 9.73438C74.5781 9.23438 77 7.09375 77 4.8125V3.75H78.5625V4.8125ZM84.2656 13.75V14.9844H71.4531V13.75H84.2656ZM100.188 2.82812V6.35938H102.219V7.5625H100.188V11.1406H98.7031V2.82812H100.188ZM96.3438 3.82812C96.3438 7.45312 93.8906 10.0625 89.7812 11.25L89.1719 10.0469C92.4453 9.11719 94.4688 7.29688 94.7344 5.03125H89.7969V3.82812H96.3438ZM95.7188 11.2969C98.5469 11.2969 100.344 12.3438 100.344 14.0469C100.344 15.7656 98.5469 16.8125 95.7188 16.8125C92.9062 16.8125 91.0625 15.7656 91.0781 14.0469C91.0625 12.3438 92.9062 11.2969 95.7188 11.2969ZM95.7188 12.4688C93.7656 12.4688 92.5312 13.0625 92.5469 14.0469C92.5312 15.0312 93.7656 15.6406 95.7188 15.6406C97.6562 15.6406 98.8906 15.0312 98.8906 14.0469C98.8906 13.0625 97.6562 12.4688 95.7188 12.4688ZM107.578 3.82812C109.797 3.8125 111.375 5.1875 111.391 7.15625C111.375 9.125 109.797 10.5 107.578 10.5C105.375 10.5 103.75 9.125 103.766 7.15625C103.75 5.1875 105.375 3.8125 107.578 3.82812ZM107.578 5.10938C106.219 5.10938 105.219 5.92188 105.234 7.15625C105.219 8.39062 106.219 9.20312 107.578 9.20312C108.938 9.20312 109.938 8.39062 109.938 7.15625C109.938 5.92188 108.938 5.10938 107.578 5.10938ZM114.594 2.82812V16.8594H113.109V2.82812H114.594ZM103.094 12.6094C105.641 12.6094 109.172 12.5781 112.234 12.1406L112.344 13.2188C109.172 13.8281 105.781 13.8438 103.281 13.8438L103.094 12.6094ZM127.922 4.0625C127.906 5.92188 130.188 7.67188 132.938 8.03125L132.359 9.25C130.07 8.88281 128.055 7.69531 127.156 6.04688C126.234 7.70312 124.227 8.88281 121.953 9.25L121.359 8.03125C124.109 7.67188 126.359 5.9375 126.375 4.0625V3.29688H127.922V4.0625ZM133.516 10.625V11.8438H127.828V16.8281H126.375V11.8438H120.75V10.625H133.516ZM145.578 2.82812V6.35938H147.609V7.5625H145.578V11.1406H144.094V2.82812H145.578ZM141.734 3.82812C141.734 7.45312 139.281 10.0625 135.172 11.25L134.562 10.0469C137.836 9.11719 139.859 7.29688 140.125 5.03125H135.188V3.82812H141.734ZM141.109 11.2969C143.938 11.2969 145.734 12.3438 145.734 14.0469C145.734 15.7656 143.938 16.8125 141.109 16.8125C138.297 16.8125 136.453 15.7656 136.469 14.0469C136.453 12.3438 138.297 11.2969 141.109 11.2969ZM141.109 12.4688C139.156 12.4688 137.922 13.0625 137.938 14.0469C137.922 15.0312 139.156 15.6406 141.109 15.6406C143.047 15.6406 144.281 15.0312 144.281 14.0469C144.281 13.0625 143.047 12.4688 141.109 12.4688ZM159.312 2.82812V8.5H161.562V9.73438H159.312V16.8281H157.844V2.82812H159.312ZM156.625 5.01562V6.23438H148.328V5.01562H151.781V3.01562H153.266V5.01562H156.625ZM152.531 7.26562C154.531 7.26562 156 8.60938 156.016 10.5156C156 12.4375 154.531 13.7656 152.531 13.7812C150.516 13.7656 149.047 12.4375 149.047 10.5156C149.047 8.60938 150.516 7.26562 152.531 7.26562ZM152.531 8.48438C151.344 8.48438 150.453 9.3125 150.469 10.5156C150.453 11.7344 151.344 12.5469 152.531 12.5312C153.719 12.5469 154.594 11.7344 154.594 10.5156C154.594 9.3125 153.719 8.48438 152.531 8.48438ZM173.875 2.82812V16.8281H172.375V2.82812H173.875ZM169.703 4.32812C169.703 8.42188 167.953 11.9844 163.156 14.2812L162.375 13.0781C166.102 11.3047 167.914 8.78125 168.203 5.51562H163.047V4.32812H169.703Z"
          fill="#475569"/>
</svg>
